<?xml version="1.0" encoding="UTF-8" standalone="no"?>
<svg
   xmlns:dc="http://purl.org/dc/elements/1.1/"
   xmlns:cc="http://creativecommons.org/ns#"
   xmlns:rdf="http://www.w3.org/1999/02/22-rdf-syntax-ns#"
   xmlns:svg="http://www.w3.org/2000/svg"
   xmlns="http://www.w3.org/2000/svg"
   xmlns:xlink="http://www.w3.org/1999/xlink"
   xmlns:sodipodi="http://sodipodi.sourceforge.net/DTD/sodipodi-0.dtd"
   xmlns:inkscape="http://www.inkscape.org/namespaces/inkscape"
   id="svg8"
   version="1.1"
   viewBox="0 0 128 128"
   height="128"
   width="128"
   sodipodi:docname="penguin_ic.svg"
   inkscape:version="0.92.5 (2060ec1f9f, 2020-04-08)">
  <sodipodi:namedview
     pagecolor="#ffffff"
     bordercolor="#666666"
     borderopacity="1"
     objecttolerance="10"
     gridtolerance="10"
     guidetolerance="10"
     inkscape:pageopacity="0"
     inkscape:pageshadow="2"
     inkscape:window-width="1054"
     inkscape:window-height="583"
     id="namedview56"
     showgrid="false"
     showguides="true"
     inkscape:guide-bbox="true"
     inkscape:zoom="0.4609375"
     inkscape:cx="-132.90257"
     inkscape:cy="84.898182"
     inkscape:window-x="0"
     inkscape:window-y="0"
     inkscape:window-maximized="0"
     inkscape:current-layer="svg8" />
  <defs
     id="defs2">
    <linearGradient
       id="linearGradient5041">
      <stop
         id="stop5037"
         offset="0"
         style="stop-color:#ffffff;stop-opacity:1;" />
      <stop
         id="stop5039"
         offset="1"
         style="stop-color:#e7eef9;stop-opacity:1" />
    </linearGradient>
    <linearGradient
       id="linearGradient4966">
      <stop
         id="stop4962"
         offset="0"
         style="stop-color:#ffffff;stop-opacity:1;" />
      <stop
         id="stop4964"
         offset="1"
         style="stop-color:#e6edf8;stop-opacity:1" />
    </linearGradient>
    <linearGradient
       id="linearGradient4931">
      <stop
         id="stop4927"
         offset="0"
         style="stop-color:#ffffff;stop-opacity:1;" />
      <stop
         id="stop4929"
         offset="1"
         style="stop-color:#d7e3f4;stop-opacity:1" />
    </linearGradient>
    <linearGradient
       gradientTransform="translate(-378.45365,-12.294399)"
       gradientUnits="userSpaceOnUse"
       y2="138.31091"
       x2="84.077797"
       y1="110.44587"
       x1="35.814117"
       id="linearGradient4871">
      <stop
         id="stop5078"
         offset="0"
         style="stop-color:#ffffff;stop-opacity:1;" />
      <stop
         id="stop5080"
         offset="1"
         style="stop-color:#d7e3f4;stop-opacity:1" />
    </linearGradient>
    <linearGradient
       gradientTransform="translate(-378.45365,-12.294399)"
       gradientUnits="userSpaceOnUse"
       y2="125.9475"
       x2="90.337097"
       y1="93.87516"
       x1="70.024612"
       id="linearGradient4879"
       xlink:href="#linearGradient4931">
      <stop
         id="stop5083"
         offset="0"
         style="stop-color:#ffffff;stop-opacity:1;" />
      <stop
         id="stop5085"
         offset="1"
         style="stop-color:#d7e3f4;stop-opacity:1" />
    </linearGradient>
    <linearGradient
       gradientTransform="translate(-378.45365,-12.294399)"
       gradientUnits="userSpaceOnUse"
       y2="123.80934"
       x2="143.791"
       y1="136.10374"
       x1="180.13966"
       id="linearGradient4909"
       xlink:href="#linearGradient4931">
      <stop
         id="stop5088"
         offset="0"
         style="stop-color:#ffffff;stop-opacity:1;" />
      <stop
         id="stop5090"
         offset="1"
         style="stop-color:#d7e3f4;stop-opacity:1" />
    </linearGradient>
    <linearGradient
       gradientTransform="translate(-378.45365,-12.294399)"
       gradientUnits="userSpaceOnUse"
       y2="130.75836"
       x2="88.733482"
       y1="201.3175"
       x1="125.08214"
       id="linearGradient4925"
       xlink:href="#linearGradient4931">
      <stop
         id="stop5093"
         offset="0"
         style="stop-color:#ffffff;stop-opacity:1;" />
      <stop
         id="stop5095"
         offset="1"
         style="stop-color:#d7e3f4;stop-opacity:1" />
    </linearGradient>
    <linearGradient
       gradientTransform="translate(-378.45365,-12.294399)"
       gradientUnits="userSpaceOnUse"
       y2="112.88142"
       x2="100.93616"
       y1="195.97212"
       x1="78.042702"
       id="linearGradient4933"
       xlink:href="#linearGradient4931">
      <stop
         id="stop5098"
         offset="0"
         style="stop-color:#ffffff;stop-opacity:1;" />
      <stop
         id="stop5100"
         offset="1"
         style="stop-color:#d7e3f4;stop-opacity:1" />
    </linearGradient>
    <linearGradient
       gradientTransform="translate(25.885821,50.096425)"
       gradientUnits="userSpaceOnUse"
       y2="304.61536"
       x2="134.82277"
       y1="176.19417"
       x1="-55.592064"
       id="linearGradient4968"
       xlink:href="#linearGradient4966">
      <stop
         id="stop5103"
         offset="0"
         style="stop-color:#ffffff;stop-opacity:1;" />
      <stop
         id="stop5105"
         offset="1"
         style="stop-color:#e6edf8;stop-opacity:1" />
    </linearGradient>
    <linearGradient
       gradientUnits="userSpaceOnUse"
       y2="259.04773"
       x2="57.730217"
       y1="224.83723"
       x1="25.123335"
       id="linearGradient5043"
       xlink:href="#linearGradient5041">
      <stop
         id="stop5108"
         offset="0"
         style="stop-color:#ffffff;stop-opacity:1;" />
      <stop
         id="stop5110"
         offset="1"
         style="stop-color:#e7eef9;stop-opacity:1" />
    </linearGradient>
    <linearGradient
       y2="259.04773"
       x2="57.730217"
       y1="224.83723"
       x1="25.123335"
       gradientUnits="userSpaceOnUse"
       id="linearGradient5320"
       xlink:href="#linearGradient5043"
       gradientTransform="matrix(0.68755847,0,0,0.68755847,-7.5202867,-130.65399)" />
    <linearGradient
       y2="259.04773"
       x2="57.730217"
       y1="224.83723"
       x1="25.123335"
       gradientUnits="userSpaceOnUse"
       id="linearGradient5320-5"
       xlink:href="#linearGradient5043"
       gradientTransform="matrix(0.68755834,0,0,0.68755834,79.607034,-130.65396)" />
  </defs>
  <metadata
     id="metadata5">
    <rdf:RDF>
      <cc:Work
         rdf:about="">
        <dc:format>image/svg+xml</dc:format>
        <dc:type
           rdf:resource="http://purl.org/dc/dcmitype/StillImage" />
        <dc:title />
      </cc:Work>
    </rdf:RDF>
  </metadata>
  <path
     inkscape:connector-curvature="0"
     style="color:#000000;font-style:normal;font-variant:normal;font-weight:normal;font-stretch:normal;font-size:medium;line-height:normal;font-family:sans-serif;font-variant-ligatures:normal;font-variant-position:normal;font-variant-caps:normal;font-variant-numeric:normal;font-variant-alternates:normal;font-feature-settings:normal;text-indent:0;text-align:start;text-decoration:none;text-decoration-line:none;text-decoration-style:solid;text-decoration-color:#000000;letter-spacing:normal;word-spacing:normal;text-transform:none;writing-mode:lr-tb;direction:ltr;text-orientation:mixed;dominant-baseline:auto;baseline-shift:baseline;text-anchor:start;white-space:normal;shape-padding:0;clip-rule:nonzero;display:inline;overflow:visible;visibility:visible;opacity:1;isolation:auto;mix-blend-mode:normal;color-interpolation:sRGB;color-interpolation-filters:linearRGB;solid-color:#000000;solid-opacity:1;vector-effect:none;fill:#555555;fill-opacity:1;fill-rule:nonzero;stroke:none;stroke-width:4.40536785;stroke-linecap:butt;stroke-linejoin:miter;stroke-miterlimit:4;stroke-dasharray:none;stroke-dashoffset:0;stroke-opacity:1;color-rendering:auto;image-rendering:auto;shape-rendering:auto;text-rendering:auto;enable-background:accumulate"
     d="M 72.525967,33.24241 62.378905,48.64749 66.057955,51.07077 76.20502,35.66568 Z"
     id="path4842" />
  <path
     inkscape:connector-curvature="0"
     style="color:#000000;font-style:normal;font-variant:normal;font-weight:normal;font-stretch:normal;font-size:medium;line-height:normal;font-family:sans-serif;font-variant-ligatures:normal;font-variant-position:normal;font-variant-caps:normal;font-variant-numeric:normal;font-variant-alternates:normal;font-feature-settings:normal;text-indent:0;text-align:start;text-decoration:none;text-decoration-line:none;text-decoration-style:solid;text-decoration-color:#000000;letter-spacing:normal;word-spacing:normal;text-transform:none;writing-mode:lr-tb;direction:ltr;text-orientation:mixed;dominant-baseline:auto;baseline-shift:baseline;text-anchor:start;white-space:normal;shape-padding:0;clip-rule:nonzero;display:inline;overflow:visible;visibility:visible;opacity:1;isolation:auto;mix-blend-mode:normal;color-interpolation:sRGB;color-interpolation-filters:linearRGB;solid-color:#000000;solid-opacity:1;vector-effect:none;fill:#555555;fill-opacity:1;fill-rule:nonzero;stroke:none;stroke-width:4.4378829;stroke-linecap:butt;stroke-linejoin:miter;stroke-miterlimit:4;stroke-dasharray:none;stroke-dashoffset:0;stroke-opacity:1;color-rendering:auto;image-rendering:auto;shape-rendering:auto;text-rendering:auto;enable-background:accumulate"
     d="m 55.765709,33.22102 -3.689595,2.46605 10.297369,15.40539 3.689594,-2.46636 z"
     id="path4842-0" />
  <path
     inkscape:connector-curvature="0"
     style="opacity:1;fill:#333333;fill-opacity:1;fill-rule:nonzero;stroke:none;stroke-width:0.46266779;stroke-linecap:round;stroke-linejoin:round;stroke-miterlimit:4;stroke-dasharray:none;stroke-dashoffset:0;stroke-opacity:1;paint-order:markers fill stroke"
     d="m 64.218346,45.86032 c -10.203679,-1e-5 -19.989464,3.5252 -27.204556,9.80013 -7.215097,6.27495 -11.268477,14.78563 -11.268477,23.65973 0,10.71076 -0.130245,21.44012 0,32.53078 0,0.23327 0.07265,0.44886 0.196288,0.62593 h 76.553489 c 0.12364,-0.17707 0.1963,-0.39266 0.1963,-0.62593 0.0527,-9.7517 -3e-5,-25.1238 0,-32.53078 0,-8.8741 -4.053391,-17.38478 -11.268485,-23.65973 -7.215097,-6.27493 -17.000873,-9.80014 -27.204559,-9.80013 z"
     id="path4762" />
  <path
     inkscape:connector-curvature="0"
     style="opacity:1;fill:#f2f2f2;stroke:none;stroke-width:0.04080471px;stroke-linecap:butt;stroke-linejoin:miter;stroke-opacity:1"
     d="m 47.663274,64.67712 c -4.430227,0 -12.824296,2.09856 -14.223318,9.32682 -1.221607,6.31164 -1.198598,15.82603 -0.39697,38.47296 h 62.354721 c 0.809807,-22.64693 0.833115,-32.16132 -0.40095,-38.47296 -1.413295,-7.22826 -9.89303,-9.32682 -14.368447,-9.32682 -4.475415,0 -9.286718,2.48462 -9.65749,4.77997 -0.99811,6.17901 0,13.75701 0,13.75701 0.01509,1.04933 0.03694,2.0986 0.06352,3.14778 H 57.160413 c 0.02631,-1.04918 0.04786,-2.09845 0.0628,-3.14778 0,0 1.165848,-7.34483 0,-13.75701 -0.41554,-2.28546 -5.129714,-4.77997 -9.559939,-4.77997 z"
     id="path4769" />
  <path
     inkscape:connector-curvature="0"
     style="fill:#ff6600;stroke:none;stroke-width:0.04080471px;stroke-linecap:butt;stroke-linejoin:miter;stroke-opacity:1"
     d="m 64.143186,80.64925 15.347781,7.81119 -15.347781,13.8736 -15.347781,-13.8736 z"
     id="path4816" />
  <circle
     style="opacity:1;fill:#000000;fill-opacity:1;fill-rule:nonzero;stroke:none;stroke-width:0.46266779;stroke-linecap:round;stroke-linejoin:round;stroke-miterlimit:4;stroke-dasharray:none;stroke-dashoffset:0;stroke-opacity:1;paint-order:markers fill stroke"
     id="path4818"
     cx="45.099178"
     cy="78.598976"
     r="4.2867756" />
  <circle
     style="opacity:1;fill:#000000;fill-opacity:1;fill-rule:nonzero;stroke:none;stroke-width:0.46266779;stroke-linecap:round;stroke-linejoin:round;stroke-miterlimit:4;stroke-dasharray:none;stroke-dashoffset:0;stroke-opacity:1;paint-order:markers fill stroke"
     id="path4818-0"
     cx="83.327209"
     cy="78.598976"
     r="4.2867756" />
  <path
     inkscape:connector-curvature="0"
     style="color:#000000;font-style:normal;font-variant:normal;font-weight:normal;font-stretch:normal;font-size:medium;line-height:normal;font-family:sans-serif;font-variant-ligatures:normal;font-variant-position:normal;font-variant-caps:normal;font-variant-numeric:normal;font-variant-alternates:normal;font-feature-settings:normal;text-indent:0;text-align:start;text-decoration:none;text-decoration-line:none;text-decoration-style:solid;text-decoration-color:#000000;letter-spacing:normal;word-spacing:normal;text-transform:none;writing-mode:lr-tb;direction:ltr;text-orientation:mixed;dominant-baseline:auto;baseline-shift:baseline;text-anchor:start;white-space:normal;shape-padding:0;clip-rule:nonzero;display:inline;overflow:visible;visibility:visible;opacity:0.231;isolation:auto;mix-blend-mode:normal;color-interpolation:sRGB;color-interpolation-filters:linearRGB;solid-color:#000000;solid-opacity:1;vector-effect:none;fill:#282828;fill-opacity:1;fill-rule:nonzero;stroke:none;stroke-width:4.40536737;stroke-linecap:butt;stroke-linejoin:miter;stroke-miterlimit:4;stroke-dasharray:none;stroke-dashoffset:0;stroke-opacity:1;color-rendering:auto;image-rendering:auto;shape-rendering:auto;text-rendering:auto;enable-background:accumulate"
     d="M 72.454839,32.77607 64.143663,45.39398 H 64.1432 v 67.08295 h 37.3847 c 0.60513,0 1.09232,-0.48717 1.09232,-1.09231 0.0527,-9.75171 -1e-5,-25.1238 0,-32.53077 0,-8.87411 -4.053386,-17.38471 -11.268471,-23.65966 -6.007382,-5.2246 -13.796956,-8.5425 -22.125968,-9.50702 l 6.908114,-10.48784 z"
     id="path4842-3" />
  <g
     id="text5116"
     style="font-style:normal;font-variant:normal;font-weight:bold;font-stretch:normal;font-size:14.11111069px;line-height:1.25;font-family:Pacifico;-inkscape-font-specification:'Pacifico Bold';letter-spacing:0px;word-spacing:0px;fill:#000000;fill-opacity:1;stroke:none;stroke-width:0.26458332"
     transform="matrix(1.5397895,-0.13471411,0.13471411,1.5397895,-58.262817,-231.1652)"
     aria-label="?">
    <path
       inkscape:connector-curvature="0"
       id="path5266"
       style="font-size:22.57777786px;fill:#000000;stroke-width:0.26409945"
       d="m 36.560209,180.60499 q -0.405657,0 -0.653558,-0.22536 -0.247902,-0.2479 -0.225365,-0.78878 0.09014,-1.4198 0.676094,-2.52408 0.58595,-1.10429 1.960675,-2.47902 1.28458,-1.26204 1.847992,-2.14097 0.563412,-0.87892 0.563412,-1.82545 0,-1.55502 -1.73531,-1.55502 -1.036677,0 -1.577553,0.47327 -0.540876,0.45073 -0.540876,1.14936 l 0.02254,0.924 q 0,0.38312 -0.292974,0.67609 -0.270437,0.27043 -0.878923,0.27043 -0.698631,0 -1.081752,-0.40565 -0.360583,-0.4282 -0.360583,-1.19443 0,-1.12683 0.540876,-2.05083 0.563412,-0.94652 1.690236,-1.50994 1.126825,-0.56341 2.771989,-0.56341 2.231112,0 3.448082,0.96907 1.239506,0.94653 1.239506,2.74945 0,1.4198 -0.721167,2.56916 -0.721167,1.14936 -2.163503,2.38887 -1.21697,1.03668 -1.847992,1.69023 -0.631022,0.65356 -0.923996,1.14936 -0.270437,0.47327 -0.450729,1.10429 -0.157756,0.58595 -0.518339,0.87893 -0.338048,0.27043 -0.788778,0.27043 z m -0.856386,5.38623 q -0.991606,0 -1.509945,-0.54088 -0.495803,-0.54088 -0.495803,-1.4198 0,-1.01414 0.563412,-1.62263 0.585949,-0.60848 1.622627,-0.60848 0.991606,0 1.487408,0.4958 0.51834,0.47327 0.51834,1.4198 0,1.03668 -0.585949,1.6677 -0.585948,0.60849 -1.60009,0.60849 z" />
  </g>
  <g
     id="text5116-0"
     style="font-style:normal;font-variant:normal;font-weight:bold;font-stretch:normal;font-size:14.11111069px;line-height:1.25;font-family:Pacifico;-inkscape-font-specification:'Pacifico Bold';letter-spacing:0px;word-spacing:0px;fill:#000000;fill-opacity:1;stroke:none;stroke-width:0.26458332"
     transform="matrix(1.5365365,-0.13442951,0.13442951,1.5365365,25.43561,-230.57027)"
     aria-label="?">
    <path
       inkscape:connector-curvature="0"
       id="path5266-5"
       style="font-size:22.57777786px;fill:#000000;stroke-width:0.26458332"
       d="m 36.566784,180.59554 q -0.4064,0 -0.654755,-0.22578 -0.248356,-0.24835 -0.225778,-0.79022 0.09031,-1.4224 0.677333,-2.52871 0.587023,-1.10631 1.964267,-2.48356 1.286933,-1.26435 1.851378,-2.14489 0.564444,-0.88053 0.564444,-1.8288 0,-1.55786 -1.738489,-1.55786 -1.038577,0 -1.580444,0.47413 -0.541867,0.45156 -0.541867,1.15147 l 0.02258,0.92569 q 0,0.38382 -0.293511,0.67733 -0.270933,0.27093 -0.880533,0.27093 -0.699911,0 -1.083734,-0.4064 -0.361244,-0.42898 -0.361244,-1.19662 0,-1.12889 0.541867,-2.05458 0.564444,-0.94826 1.693333,-1.51271 1.128889,-0.56444 2.777067,-0.56444 2.2352,0 3.4544,0.97084 1.241777,0.94827 1.241777,2.75449 0,1.4224 -0.722489,2.57387 -0.722488,1.15146 -2.167466,2.39324 -1.2192,1.03858 -1.851378,1.69333 -0.632178,0.65476 -0.925689,1.15147 -0.270933,0.47413 -0.451555,1.10631 -0.158045,0.58702 -0.519289,0.88054 -0.338667,0.27093 -0.790223,0.27093 z m -0.857955,5.39609 q -0.993422,0 -1.512711,-0.54187 -0.496711,-0.54187 -0.496711,-1.4224 0,-1.016 0.564444,-1.6256 0.587022,-0.6096 1.6256,-0.6096 0.993422,0 1.490133,0.49671 0.519289,0.47414 0.519289,1.4224 0,1.03858 -0.587022,1.67076 -0.587022,0.6096 -1.603022,0.6096 z" />
  </g>
</svg>
